<svg xmlns="http://www.w3.org/2000/svg" width="256" height="16" viewBox="0 0 256 16" shape-rendering="crispEdges">
  <g fill="#ffffff">
    <g transform="translate(0 0)"><rect x="6" y="2" width="4" height="4"/><rect x="4" y="7" width="8" height="2"/><rect x="2" y="9" width="12" height="5"/></g>
    <g transform="translate(16 0)"><rect x="3" y="1" width="8" height="14"/><rect x="11" y="4" width="2" height="11"/><rect x="5" y="4" width="4" height="1"/><rect x="5" y="7" width="6" height="1"/><rect x="5" y="10" width="6" height="1"/></g>
    <g transform="translate(32 0)"><rect x="2" y="2" width="12" height="9"/><rect x="4" y="11" width="2" height="3"/><rect x="6" y="11" width="3" height="2"/><rect x="4" y="5" width="2" height="2"/><rect x="7" y="5" width="2" height="2"/><rect x="10" y="5" width="2" height="2"/></g>
    <g transform="translate(48 0)"><rect x="2" y="9" width="3" height="5"/><rect x="7" y="5" width="3" height="9"/><rect x="12" y="1" width="3" height="13"/></g>
    <g transform="translate(64 0)"><rect x="4" y="2" width="8" height="12"/><rect x="2" y="5" width="2" height="6"/><rect x="12" y="5" width="2" height="6"/><rect x="5" y="5" width="2" height="2"/><rect x="9" y="5" width="2" height="2"/><rect x="5" y="10" width="2" height="1"/><rect x="7" y="11" width="2" height="1"/><rect x="9" y="10" width="2" height="1"/></g>
    <g transform="translate(80 0)"><rect x="7" y="1" width="3" height="3"/><rect x="5" y="4" width="6" height="5"/><rect x="3" y="7" width="3" height="3"/><rect x="10" y="7" width="3" height="3"/><rect x="6" y="9" width="4" height="3"/><rect x="4" y="12" width="2" height="3"/><rect x="10" y="12" width="2" height="3"/></g>
    <g transform="translate(96 0)"><rect x="2" y="3" width="5" height="11"/><rect x="9" y="3" width="5" height="11"/><rect x="7" y="5" width="2" height="9"/><rect x="3" y="2" width="4" height="2"/><rect x="9" y="2" width="4" height="2"/></g>
    <g transform="translate(112 0)"><rect x="6" y="1" width="4" height="2"/><rect x="4" y="3" width="8" height="12"/><rect x="2" y="5" width="2" height="8"/><rect x="6" y="6" width="2" height="2"/><rect x="9" y="6" width="2" height="2"/><rect x="6" y="10" width="5" height="2"/></g>
    <g transform="translate(128 0)"><rect x="4" y="1" width="8" height="14"/><rect x="2" y="4" width="2" height="9"/><rect x="6" y="4" width="4" height="1"/><rect x="6" y="7" width="1" height="1"/><rect x="8" y="7" width="3" height="1"/><rect x="6" y="10" width="1" height="1"/><rect x="8" y="10" width="3" height="1"/></g>
    <g transform="translate(144 0)"><rect x="3" y="2" width="10" height="12"/><rect x="5" y="5" width="2" height="2"/><rect x="8" y="5" width="3" height="1"/><rect x="5" y="9" width="2" height="2"/><rect x="8" y="9" width="3" height="1"/></g>
    <g transform="translate(160 0)"><rect x="7" y="1" width="2" height="10"/><rect x="3" y="7" width="10" height="2"/><rect x="5" y="11" width="6" height="2"/></g>
    <g transform="translate(176 0)"><rect x="2" y="7" width="9" height="2"/><rect x="4" y="4" width="2" height="8"/><rect x="10" y="5" width="2" height="2"/><rect x="12" y="3" width="2" height="2"/><rect x="10" y="9" width="2" height="2"/><rect x="12" y="11" width="2" height="2"/></g>
    <g transform="translate(192 0)"><rect x="7" y="1" width="2" height="2"/><rect x="5" y="3" width="6" height="2"/><rect x="3" y="5" width="10" height="6"/><rect x="5" y="11" width="6" height="2"/><rect x="7" y="13" width="2" height="2"/><rect x="7" y="6" width="2" height="4"/></g>
    <g transform="translate(208 0)"><rect x="7" y="1" width="2" height="2"/><rect x="5" y="3" width="6" height="2"/><rect x="3" y="5" width="10" height="6"/><rect x="5" y="11" width="6" height="2"/><rect x="7" y="13" width="2" height="2"/><rect x="5" y="7" width="2" height="2"/><rect x="9" y="7" width="2" height="2"/></g>
    <g transform="translate(224 0)"><rect x="2" y="2" width="12" height="12"/><rect x="4" y="4" width="8" height="8" fill="#000000"/><rect x="5" y="7" width="2" height="2"/><rect x="7" y="9" width="2" height="2"/><rect x="9" y="5" width="2" height="4"/></g>
    <g transform="translate(240 0)"><rect x="2" y="2" width="12" height="12"/><rect x="4" y="4" width="8" height="8" fill="#000000"/><rect x="5" y="7" width="6" height="2"/></g>
  </g>
</svg>
